<?xml version="1.0" standalone="no"?>
<!DOCTYPE svg PUBLIC "-//W3C//DTD SVG 20010904//EN"
 "http://www.w3.org/TR/2001/REC-SVG-20010904/DTD/svg10.dtd">
<svg version="1.0" xmlns="http://www.w3.org/2000/svg"
 width="300.000000pt" height="300.000000pt" viewBox="0 0 300.000000 300.000000"
 preserveAspectRatio="xMidYMid meet">
<metadata>
Created by potrace 1.14, written by Peter Selinger 2001-2017
</metadata>
<g transform="translate(0.000000,300.000000) scale(0.100000,-0.100000)"
fill="#000000" stroke="none">
<path d="M1426 2974 c-21 -14 -41 -34 -43 -45 -3 -10 -10 -19 -15 -19 -8 0 -6
-75 3 -110 5 -19 49 -64 71 -73 16 -6 18 -35 18 -380 l-1 -374 -220 -1 c-155
0 -225 -4 -235 -13 -17 -14 -18 -45 -1 -56 6 -4 107 -9 222 -10 116 -1 216 -2
223 -2 7 -1 12 -15 12 -36 0 -21 -5 -36 -12 -36 -7 -1 -141 -2 -297 -3 -256
-1 -287 1 -307 16 -42 33 -69 38 -102 18 -17 -11 -35 -27 -40 -37 -25 -49 24
-125 78 -119 30 3 70 23 70 35 0 4 137 8 306 8 l305 0 -3 -36 -3 -36 -60 -2
c-98 -5 -156 -4 -165 2 -5 3 -11 1 -14 -4 -3 -5 -21 -5 -41 -1 -19 4 -37 4
-40 0 -3 -4 -21 -4 -40 0 -19 4 -37 4 -40 0 -3 -4 -21 -4 -40 0 -19 4 -37 4
-40 0 -3 -4 -21 -4 -40 0 -20 4 -38 4 -41 -1 -3 -5 -9 -7 -14 -4 -11 7 -168
10 -175 4 -2 -3 -32 -2 -65 1 -34 3 -64 2 -66 -2 -3 -5 -9 -6 -14 -3 -14 9
-39 -24 -33 -44 7 -27 20 -30 151 -28 69 1 112 -2 112 -8 0 -7 3 -7 8 0 4 6
69 10 157 10 88 0 153 -4 157 -10 5 -7 8 -7 8 0 0 8 124 11 318 6 21 -1 23 -5
20 -38 l-3 -38 -493 -1 -492 0 -16 24 c-19 29 -70 51 -104 45 -35 -6 -71 -31
-77 -54 -3 -10 -9 -19 -14 -19 -5 0 -9 -16 -9 -35 0 -20 5 -35 12 -35 6 0 9
-3 5 -6 -8 -8 25 -43 58 -60 38 -20 83 -9 119 29 l31 32 177 0 c98 1 179 -2
179 -5 1 -3 3 -139 3 -303 2 -249 4 -300 16 -308 25 -15 46 -10 56 14 6 12 9
147 9 309 -1 252 1 288 14 292 13 4 93 1 111 -3 3 0 5 -173 5 -384 l0 -384
-32 -37 c-19 -20 -33 -48 -33 -62 0 -62 61 -118 118 -108 31 6 73 34 67 44 -3
5 -1 10 4 12 31 10 10 107 -27 127 -16 8 -19 20 -18 66 1 30 -2 55 -7 55 -4 0
-5 6 -1 12 11 18 12 48 2 48 -5 0 -6 6 -2 12 11 18 12 48 2 48 -5 0 -6 6 -2
12 11 18 11 251 1 266 -6 7 -6 12 0 12 11 0 11 29 -1 48 -4 6 -3 12 1 12 5 0
8 19 6 43 -2 23 -3 48 -3 55 0 20 0 41 -1 55 -2 46 6 52 69 53 l62 1 1 -604
c1 -331 2 -608 3 -614 2 -21 34 -35 54 -23 16 10 17 51 19 580 1 313 2 589 3
614 l0 46 63 -1 62 0 2 -625 c1 -344 2 -662 3 -707 0 -80 1 -83 26 -89 15 -4
30 -2 37 5 9 9 12 135 13 479 l1 467 232 0 c214 0 234 2 246 19 13 17 10 45
-6 56 -4 3 -111 5 -237 4 l-230 0 -4 33 c-2 19 1 37 6 41 6 3 139 6 296 7 263
0 286 -1 302 -18 39 -42 123 -37 134 9 3 13 10 24 14 24 4 0 3 17 -2 39 -16
63 -92 86 -139 43 -22 -22 -29 -22 -316 -22 -253 0 -293 2 -294 15 -1 8 -2 25
-2 38 l-1 22 314 2 c173 2 320 3 325 3 6 1 72 1 148 0 93 -1 143 3 153 11 19
16 18 46 -3 57 -10 5 -222 9 -472 9 -332 0 -455 3 -460 12 -4 6 -6 24 -3 39
l4 28 498 -1 499 0 28 -32 c34 -38 86 -49 128 -27 42 22 54 44 55 100 0 57
-23 88 -78 103 -36 11 -107 -19 -117 -48 -5 -16 -23 -18 -200 -18 l-195 0 0
300 c1 307 -2 331 -39 325 -36 -6 -37 -19 -37 -324 l1 -301 -66 0 -65 0 -1
391 0 391 27 28 c15 15 30 37 32 50 18 94 -89 162 -160 102 -53 -45 -52 -108
2 -160 21 -20 21 -26 19 -395 0 -206 -2 -383 -2 -392 -1 -14 -11 -17 -63 -15
l-63 2 0 605 c0 434 -4 611 -12 625 -10 16 -15 17 -37 7 -14 -6 -26 -20 -27
-29 -1 -10 -2 -286 -3 -613 l-1 -595 -62 -2 c-49 -1 -63 1 -64 13 0 8 -1 41
-1 74 0 137 2 150 17 150 8 0 15 7 15 15 0 24 -4 30 -17 29 -7 -1 -13 3 -14
10 -1 12 0 892 1 914 0 7 10 17 23 23 30 14 71 76 75 113 4 50 -33 112 -82
135 -55 27 -82 26 -130 -5z m109 -79 c14 -13 25 -33 25 -43 0 -26 -40 -59 -69
-56 -60 4 -69 96 -11 117 26 9 30 8 55 -18z m399 -500 c3 -8 -3 -19 -13 -25
-15 -7 -20 -6 -25 6 -3 9 -4 20 0 25 8 14 31 11 38 -6z m-1540 -920 c5 -14
-17 -45 -33 -45 -16 0 -31 28 -25 44 8 20 50 21 58 1z m2280 -2 c9 -21 -16
-46 -37 -37 -9 3 -17 17 -17 30 0 19 5 24 24 24 13 0 27 -8 30 -17z m-1571
-917 c8 -19 -15 -37 -32 -26 -17 10 -7 40 13 40 7 0 16 -6 19 -14z"/>
</g>
</svg>
